<svg xmlns="http://www.w3.org/2000/svg" viewBox="0 0 64 64" role="img" aria-labelledby="title desc">
  <title id="title">ai-memory-hub mark</title>
  <desc id="desc">A rose and voice inspired memory hub logo.</desc>
  <rect width="64" height="64" rx="14" fill="#202522"/>
  <circle cx="32" cy="32" r="25" fill="#174d49"/>
  <g fill="#5f8f84" opacity=".92"><ellipse cx="19" cy="18" rx="4" ry="2.7" transform="rotate(-32 19 18)"/><ellipse cx="31" cy="13" rx="4" ry="2.7" transform="rotate(-8 31 13)"/><ellipse cx="45" cy="18" rx="4" ry="2.7" transform="rotate(35 45 18)"/><ellipse cx="15" cy="43" rx="4" ry="2.7" transform="rotate(30 15 43)"/><ellipse cx="32" cy="50" rx="4" ry="2.7" transform="rotate(8 32 50)"/><ellipse cx="49" cy="43" rx="4" ry="2.7" transform="rotate(-30 49 43)"/></g>
  <g fill="#c83265"><circle cx="20" cy="16" r="3.4"/><circle cx="32" cy="12" r="3.2"/><circle cx="44" cy="16" r="3.4"/><circle cx="13" cy="29" r="3.2"/><circle cx="51" cy="29" r="3.2"/><circle cx="18" cy="46" r="3.4"/><circle cx="32" cy="52" r="3.2"/><circle cx="46" cy="46" r="3.4"/></g>
  <path d="M12 34c8-10 15-11 20-7 5-4 12-3 20 7-9-2-15-2-20-1-5-1-11-1-20 1Z" fill="#eadcc0"/>
  <path d="M12 35c8 11 32 11 40 0-9 2-15 2-20 2s-11 0-20-2Z" fill="#f7f1df"/>
  <path d="M13 34.5c10 1.6 28 1.6 38 0" fill="none" stroke="#6d4f4e" stroke-width="2.8" stroke-linecap="round"/>
  <circle cx="32" cy="39" r="3.6" fill="#226f68"/>
  <path d="M24 41h16" stroke="#226f68" stroke-width="3" stroke-linecap="round"/>
</svg>
